<?xml version="1.0" encoding="utf-8"?>
<!-- Generator: Adobe Illustrator 19.1.0, SVG Export Plug-In . SVG Version: 6.00 Build 0)  -->
<svg version="1.1" id="Lager_2" xmlns="http://www.w3.org/2000/svg" xmlns:xlink="http://www.w3.org/1999/xlink" x="0px" y="0px"
	 viewBox="0 0 564.9 316" style="enable-background:new 0 0 564.9 316;" xml:space="preserve">
<style type="text/css">
	.st0{fill:none;}
	.st1{fill:none;stroke:#FFFFFF;stroke-width:12;stroke-miterlimit:10;}
</style>
<line class="st0" x1="170.8" y1="71.7" x2="210.3" y2="223.5"/>
<g>
	<path class="st1" d="M72.4,141.4c-4.2-4.9-0.9-10.7-0.6-17.2c1.2-25.2,74.1-72.8,104.3-67.5c10,1.8,37,119.6,44.9,157.8
		c0.6,2.9,3.5,8.6,2.6,11.3c-1.4,4.2-9.3,9.2-13.4,11.1l-23.5,13.9c-6.4,2.5-19.1,3.9-23.5-1.4C143.3,225.6,88.8,160.3,72.4,141.4z"
		/>
	<path class="st1" d="M160.8,246.5l-35.2,35c-10.6,9.8-24.8,13.9-38.4,13c-16.6-1.2-31.3-11.1-38.6-26c-8-16.2-14-35.9-11.9-48.5
		c2.5-15.3,6.2-35,13.9-48.4l21.8-30.2L160.8,246.5z"/>
</g>
<line class="st0" x1="394.8" y1="68.3" x2="355.3" y2="220.1"/>
<path class="st1" d="M349.3,25.7l-25.9-7.1c-24.8-3.8-47.3-3-64.9-1.8c-5.5,0.4-32.2,5-44.8,10c-13.3,5.3-33.7,32.5-31,41.6
	l44.4,157.3c2.2,7.8,22.3,13.3,30.3,13.3c0,0,25.7,0.4,26.3,0.4h30.6c8.1,0,21.8-5.4,24-13.1L382.8,69
	C388.9,47.2,358.6,28.6,349.3,25.7z"/>
<g>
	<path class="st1" d="M491.1,149c4.2-4.9,0.9-10.7,0.6-17.2c-1.2-25.2-74.1-72.8-104.3-67.5c-10,1.8-37,119.6-44.9,157.8
		c-0.6,2.9-3.5,8.6-2.6,11.3c1.4,4.2,9.3,9.2,13.4,11.1l23.5,13.9c6.4,2.5,19.1,3.9,23.5-1.4C420.1,233.2,474.6,167.8,491.1,149z"/>
	<path class="st1" d="M402.6,254.1l35.2,35c10.6,9.8,24.8,13.9,38.4,13c16.6-1.2,31.2-11.1,38.6-26c8-16.2,14-35.9,11.9-48.5
		c-2.5-15.3-6.2-35-13.9-48.4L491.1,149L402.6,254.1z"/>
</g>
</svg>
