<?xml version="1.0" encoding="utf-8"?>
<!-- Generator: Adobe Illustrator 19.1.0, SVG Export Plug-In . SVG Version: 6.00 Build 0)  -->
<svg version="1.1" id="Layer_1" xmlns="http://www.w3.org/2000/svg" xmlns:xlink="http://www.w3.org/1999/xlink" x="0px" y="0px"
	 viewBox="-199 201 100 100" style="enable-background:new -199 201 100 100;" xml:space="preserve">
<g>
	<path d="M-149,205c-25.4,0-46,20.6-46,46s20.6,46,46,46c25.4,0,46-20.6,46-46C-103.1,225.6-123.7,205-149,205z M-149,294.9
		c-24.2,0-44-19.7-44-44s19.7-44,44-44c24.2,0,44,19.7,44,44C-105.1,275.2-124.8,294.9-149,294.9z"/>
	<path d="M-134.6,223.2h-8.8c-7.2,0-13.3,6.8-13.3,14.9v3.2h-7c-0.6,0-1,0.4-1,1v10.9c0,0.6,0.4,1,1,1h7v23.6c0,0.6,0.4,1,1,1h10.2
		c0.6,0,1-0.4,1-1v-23.6h9.9c0.6,0,1-0.4,1-1v-10.9c0-0.6-0.4-1-1-1h-9.9V238c0-1.3,0.8-1.9,1.1-1.9h8.8c0.6,0,1-0.4,1-1v-10.9
		C-133.6,223.6-134,223.2-134.6,223.2z M-135.6,234.1h-7.8c-1.5,0-3.1,1.6-3.1,3.9v4.3c0,0.6,0.4,1,1,1h9.9v8.9h-9.9
		c-0.6,0-1,0.4-1,1v23.6h-8.2v-23.6c0-0.6-0.4-1-1-1h-7v-8.9h7c0.6,0,1-0.4,1-1v-4.2c0-7,5.2-12.9,11.3-12.9h7.8L-135.6,234.1
		L-135.6,234.1z"/>
</g>
</svg>
