<?xml version="1.0" encoding="utf-8"?>
<!-- Generator: Adobe Illustrator 19.1.0, SVG Export Plug-In . SVG Version: 6.00 Build 0)  -->
<svg version="1.1" id="Layer_1" xmlns="http://www.w3.org/2000/svg" xmlns:xlink="http://www.w3.org/1999/xlink" x="0px" y="0px"
	 viewBox="-199 201 100 100" style="enable-background:new -199 201 100 100;" xml:space="preserve">
<g>
	<path d="M-149,297c25.4,0,46-20.6,46-46s-20.6-46-46-46s-46,20.6-46,46C-195,276.3-174.3,297-149,297z M-149,207
		c24.2,0,44,19.7,44,44c0,24.2-19.7,44-44,44c-24.3,0-44-19.7-44-44S-173.2,207-149,207z"/>
	<path d="M-163.7,272.1h29.4c3.5,0,6.4-2.9,6.4-6.4v-19.4c0-0.6-0.4-1-1-1h-8.5c-0.3,0-0.7,0.2-0.9,0.5c-0.2,0.3-0.2,0.7,0,1
		c0.9,1.7,1.3,3.6,1.3,5.5c0,6.6-5.4,12.1-12.1,12.1c-6.6,0-12.1-5.4-12.1-12.1c0-1.9,0.4-3.8,1.3-5.5c0.2-0.3,0.1-0.7,0-1
		c-0.2-0.3-0.5-0.5-0.9-0.5h-8.5c-0.6,0-1,0.4-1,1v19.4C-170.1,269.2-167.2,272.1-163.7,272.1z M-168.1,247.3h6
		c-0.6,1.6-0.9,3.2-0.9,5c0,7.8,6.3,14.1,14.1,14.1c7.8,0,14.1-6.3,14.1-14.1c0-1.7-0.3-3.4-0.9-5h6v18.4c0,2.4-2,4.4-4.4,4.4h-29.4
		c-2.4,0-4.4-2-4.4-4.4v-18.4H-168.1z"/>
	<path d="M-137.5,242.5h2.8c2.3,0,4.2-1.9,4.2-4.2v-2.8c0-2.3-1.9-4.2-4.2-4.2h-2.8c-2.3,0-4.2,1.9-4.2,4.2v2.8
		C-141.7,240.6-139.8,242.5-137.5,242.5z M-139.7,235.5c0-1.2,1-2.2,2.2-2.2h2.8c1.2,0,2.2,1,2.2,2.2v2.8c0,1.2-1,2.2-2.2,2.2h-2.8
		c-1.2,0-2.2-1-2.2-2.2C-139.7,238.3-139.7,235.5-139.7,235.5z"/>
	<path d="M-149,261.5c5.1,0,9.3-4.2,9.3-9.3c0-5.1-4.2-9.3-9.3-9.3s-9.3,4.2-9.3,9.3C-158.2,257.4-154.1,261.5-149,261.5z M-149,245
		c4,0,7.3,3.3,7.3,7.3s-3.3,7.3-7.3,7.3s-7.3-3.3-7.3-7.3S-153,245-149,245z"/>
	<path d="M-163.7,276h29.4c5.7,0,10.3-4.6,10.3-10.3v-29.4c0-5.7-4.6-10.3-10.3-10.3h-29.4c-5.7,0-10.3,4.6-10.3,10.3v29.4
		C-174,271.4-169.4,276-163.7,276z M-172,236.3c0-4.6,3.7-8.3,8.3-8.3h29.4c4.6,0,8.3,3.7,8.3,8.3v29.4c0,4.6-3.7,8.3-8.3,8.3h-29.4
		c-4.6,0-8.3-3.7-8.3-8.3V236.3z"/>
</g>
</svg>
