<?xml version="1.0" encoding="utf-8"?>
<!-- Generator: Adobe Illustrator 19.1.0, SVG Export Plug-In . SVG Version: 6.00 Build 0)  -->
<svg version="1.1" id="Layer_1" xmlns="http://www.w3.org/2000/svg" xmlns:xlink="http://www.w3.org/1999/xlink" x="0px" y="0px"
	 viewBox="-199 201 100 100" style="enable-background:new -199 201 100 100;" xml:space="preserve">
<g>
	<path d="M-149,297c25.4,0,46-20.6,46-46s-20.6-46-46-46c-25.4,0-46,20.6-46,46C-194.9,276.3-174.3,297-149,297z M-149,207
		c24.2,0,44,19.7,44,44s-19.7,44-44,44c-24.2,0-44-19.7-44-44C-192.9,226.7-173.2,207-149,207z"/>
	<path d="M-161.1,240.9h-9.1c-0.6,0-1,0.4-1,1v29.4c0,0.6,0.4,1,1,1h9.1c0.6,0,1-0.4,1-1v-29.4
		C-160.1,241.3-160.6,240.9-161.1,240.9z M-162.1,270.3h-7.1v-27.4h7.1V270.3z"/>
	<path d="M-155.3,272.3h8.7c0.6,0,1-0.4,1-1v-15.5c0-2.6,0.8-5.6,4.6-5.6c1,0,4,0,4,5.6v15.5c0,0.6,0.4,1,1,1h9.1c0.6,0,1-0.4,1-1
		v-18.6c0-8-4.4-12.7-11.7-12.7c-3.8,0-6.3,1.6-7.9,3.1v-1.2c0-0.6-0.4-1-1-1h-8.7c-0.6,0-1,0.4-1,1v29.4
		C-156.3,271.9-155.8,272.3-155.3,272.3z M-154.3,242.9h6.7v3c0,0.5,0.3,0.9,0.8,1c0.4,0.1,0.9-0.1,1.1-0.5c0,0,2.4-4.3,8-4.3
		c6.2,0,9.7,3.9,9.7,10.7v17.6h-7.1v-14.5c0-6.6-3.7-7.6-6-7.6c-4.1,0-6.6,2.8-6.6,7.6v14.5h-6.7v-27.5H-154.3z"/>
	<path d="M-165.7,239c3.5,0,6.4-2.9,6.4-6.4s-2.9-6.4-6.4-6.4s-6.4,2.9-6.4,6.4S-169.2,239-165.7,239z M-165.7,228.1
		c2.4,0,4.4,2,4.4,4.4s-2,4.4-4.4,4.4c-2.4,0-4.4-2-4.4-4.4S-168.1,228.1-165.7,228.1z"/>
</g>
</svg>
