<?xml version="1.0" encoding="utf-8"?>
<!-- Generator: Adobe Illustrator 19.1.0, SVG Export Plug-In . SVG Version: 6.00 Build 0)  -->
<svg version="1.1" id="Layer_1" xmlns="http://www.w3.org/2000/svg" xmlns:xlink="http://www.w3.org/1999/xlink" x="0px" y="0px"
	 viewBox="-199 201 100 100" style="enable-background:new -199 201 100 100;" xml:space="preserve">
<style type="text/css">
	.st0{fill:none;stroke:#000000;stroke-width:2;stroke-linejoin:round;stroke-miterlimit:10;}
</style>
<path d="M-149,205c-25.4,0-46,20.6-46,46s20.6,46,46,46s46-20.6,46-46C-103.1,225.6-123.7,205-149,205z M-149,294.9
	c-24.2,0-44-19.7-44-44s19.7-44,44-44c24.2,0,44,19.7,44,44C-105.1,275.2-124.8,294.9-149,294.9z"/>
<path class="st0" d="M-122.8,270H-175c-0.3,0-0.6-0.3-0.6-0.6v-35.7c0-0.3,0.3-0.6,0.6-0.6h52.1c0.3,0,0.6,0.3,0.6,0.6v35.7
	C-122.2,269.7-122.5,270-122.8,270z"/>
<path class="st0" d="M-176.2,230.4"/>
<path class="st0" d="M-174.7,234.1c8.7,7.4,17.4,14.8,26.1,22.2c8.6-7.5,17.2-15,25.8-22.6"/>
<path class="st0" d="M-174.7,268.8c6.9-5.6,13.8-11.1,20.7-16.7"/>
<path class="st0" d="M-122.9,269.3c-7-5.9-14-11.7-21-17.6"/>
</svg>
